# xmcd
#
# Track frame offsets:
# 150
# 19833
# 35235
# 61315
# 74954
# 90349
# 107544
# 124117
# 142576
# 157705
# 173212
#
# Disc length: 2551 seconds
#
# Revision: 1
# Processed by: cddbd v1.5.2PL0 Copyright (c) Steve Scherf et al.
# Submitted via: cdrdao 1.2.3rc2
#
DISCID=8c09f50b
DTITLE=Iļģi - Īsākās nakts dziesmas
DYEAR=2009
DGENRE=country
TTITLE0=Visu gadu Jānīts nāca
TTITLE1=Visu gadu Jānīts jāja
TTITLE2=Jāņu mātes pagalmā
TTITLE3=Sit, Jānīti, vara bungas
TTITLE4=Saule brida miglājosi
TTITLE5=Labvakari, rudzu lauks
TTITLE6=Te staigāj'ši Jāņa bērni
TTITLE7=Tā sacīja, tā bij' tiesa
TTITLE8=Jāņu dancis
TTITLE9=Visi ziedi izziedēja
TTITLE10=Līgojami, līgojami
EXTD=2009 Platforma Music
EXTD=
EXTD=Spēlēja Iļģi:
EXTD=Ilga Reizniece: vijole, kalimba, balss
EXTD=Māris Muktupāvels: kokle, dūdas, stabule, ganuragi, vargans, balss
EXTD=Gatis Gaujenieks: bass, ģīga, mandolīna, balss
EXTD=Egons Kronbergs: ģitāras, buzuki, domra, balalaika, kokles
EXTD=Mārtiņš Linde: bungas, perkusijas
EXTD=
EXTD=Viesdziedātāji:
EXTD=Uģis Prauliņš (10)
EXTD=Zane Šmite (6)
EXTD=Vineta Romāne (3)
EXTD=Aija Roznetāla (3)
EXTD=Ņina Kukule (3) - izmantots 2004. gada ieraksta fragments no folkloras ekspedīcijas Sibīrijā, 
EXTD=latviešu ciematā Timofejevkā
EXTD=
EXTD=Aranžēja un producēja IĻĢI
EXTD=Ierakstīja, miksēja un māsterēja Gatis Gaujenieks
EXTD=
EXTD=Ierakstīts 2009. gada aprīlī un maijā
EXTT0=
EXTT1=
EXTT2=
EXTT3=
EXTT4=
EXTT5=
EXTT6=
EXTT7=
EXTT8=
EXTT9=
EXTT10=
PLAYORDER=
